<svg width="110" height="26" fill="none" xmlns="http://www.w3.org/2000/svg"><g clip-path="url(#clip0_4904_2)"><path fill-rule="evenodd" clip-rule="evenodd" d="M73.238 14.307c-.718-.48-1.59-.721-2.615-.721-1.026 0-1.95.248-2.77.743-.821.495-1.466 1.217-1.935 2.164-.454.932-.681 2.032-.681 3.3 0 1.268.227 2.375.681 3.322.47.933 1.114 1.647 1.935 2.142.82.495 1.744.743 2.77.743 1.025 0 1.897-.24 2.615-.721a4.179 4.179 0 001.583-1.967v2.535H77.9V9h-3.08v7.252a4.056 4.056 0 00-1.583-1.945zm-3.978 2.907c.586-.627 1.362-.94 2.33-.94.938 0 1.707.32 2.308.962.615.626.923 1.479.923 2.557 0 1.064-.308 1.916-.923 2.557-.6.627-1.37.94-2.308.94-.968 0-1.744-.306-2.33-.918-.587-.627-.88-1.486-.88-2.579 0-1.093.293-1.952.88-2.579z" fill="#E9EDED"/><path d="M31.1 16.056a4.992 4.992 0 011.802-1.814c.748-.452 1.583-.678 2.506-.678v3.3h-.901c-2.272 0-3.407 1.05-3.407 3.148v5.835H28V13.739h3.1v2.317z" fill="#E9EDED"/><path fill-rule="evenodd" clip-rule="evenodd" d="M47.478 19.334c0 .306-.037.656-.11 1.05h-8.925c.044 1.077.337 1.871.88 2.381.541.51 1.215.765 2.022.765.718 0 1.311-.175 1.78-.524.484-.35.792-.823.923-1.42h3.276a5.196 5.196 0 01-1.033 2.272c-.528.67-1.21 1.195-2.045 1.574-.82.379-1.736.568-2.748.568-1.187 0-2.242-.248-3.165-.743a5.387 5.387 0 01-2.154-2.164c-.513-.932-.77-2.032-.77-3.3 0-1.268.257-2.368.77-3.3a5.212 5.212 0 012.154-2.164c.923-.495 1.978-.743 3.166-.743 1.201 0 2.25.248 3.143.743a5.141 5.141 0 012.088 2.055c.499.86.748 1.843.748 2.95zm-3.122-.306c.044-.99-.22-1.741-.791-2.251-.557-.51-1.246-.765-2.066-.765-.836 0-1.54.255-2.11.765-.573.51-.888 1.26-.946 2.251h5.913z" fill="#E9EDED"/><path d="M57.966 14.854c-1.04-.845-2.345-1.268-3.913-1.268-1.187 0-2.242.248-3.166.743a5.212 5.212 0 00-2.154 2.164c-.513.932-.77 2.032-.77 3.3 0 1.268.257 2.368.77 3.3a5.387 5.387 0 002.154 2.164c.924.495 1.979.743 3.166.743 1.568 0 2.872-.422 3.913-1.268 1.055-.845 1.715-1.996 1.978-3.453H56.67c-.132.641-.432 1.151-.901 1.53-.47.364-1.063.546-1.781.546-.82 0-1.51-.298-2.067-.896-.542-.612-.813-1.5-.813-2.666s.271-2.047.813-2.645c.557-.611 1.246-.918 2.067-.918.718 0 1.312.19 1.78.569.47.364.77.867.902 1.508h3.275c-.264-1.457-.923-2.608-1.978-3.453zm6.181-1.115v12.108h-3.1V13.739h3.1zm18.561 0v12.108h-3.1V13.739h3.1zm10.081 0l-3.078 9.026-3.1-9.026h-3.319L87.8 25.847h3.78l4.507-12.108H92.79zm7.021 0v12.108h-3.1V13.739h3.1zM110 23.268h-5.979l5.759-7.103v-2.426h-9.013v2.557h5.474l-5.606 7.103v2.448H110v-2.579zM62.59 12.643a1.827 1.827 0 001.832-1.822c0-1.006-.82-1.821-1.832-1.821a1.827 1.827 0 00-1.832 1.821c0 1.006.82 1.822 1.832 1.822zm20.39-1.822c0 1.006-.82 1.822-1.832 1.822a1.827 1.827 0 01-1.832-1.822c0-1.006.82-1.821 1.832-1.821 1.011 0 1.832.815 1.832 1.821zm15.278 1.822a1.827 1.827 0 001.832-1.822c0-1.006-.82-1.821-1.832-1.821a1.827 1.827 0 00-1.832 1.821c0 1.006.82 1.822 1.832 1.822z" fill="#E9EDED"/><path d="M13 13H0v13h13V13z" fill="#00A1FF"/><path d="M26 7a7 7 0 10-14 0 7 7 0 0014 0z" fill="#E00E00"/></g><defs><clipPath id="clip0_4904_2"><path fill="#fff" d="M0 0h110v26H0z"/></clipPath></defs></svg>